<?xml version="1.0" encoding="UTF-8"?>
<svg version="1.1" xmlns="http://www.w3.org/2000/svg" width="533" height="468">
<path d="M0 0 C2.23823227 -0.0021808 4.47596637 -0.02035391 6.71411133 -0.03930664 C17.76915321 -0.08337764 29.23486639 0.13622006 37.8918457 7.94311523 C47.30992854 18.01276355 47.09705709 29.69027447 47.14575195 42.82202148 C47.15145203 44.01962601 47.1571521 45.21723053 47.1630249 46.4511261 C47.1724346 48.97164028 47.17899277 51.49216654 47.18286133 54.01269531 C47.19262132 57.87057619 47.22370519 61.72793603 47.25512695 65.58569336 C47.2616526 68.03946625 47.26690479 70.49324293 47.27075195 72.94702148 C47.28309875 74.09917648 47.29544556 75.25133148 47.3081665 76.43840027 C47.30516541 77.51334244 47.30216431 78.58828461 47.29907227 79.69580078 C47.30454071 81.10855537 47.30454071 81.10855537 47.31011963 82.54985046 C46.86688967 85.72844821 45.80492301 87.59233913 43.94262695 90.18530273 C41.5715332 91.89624023 41.5715332 91.89624023 38.50512695 93.56030273 C37.92529053 93.87918457 37.3454541 94.19806641 36.74804688 94.52661133 C34.48776068 95.76182885 32.21533245 96.97307947 29.94262695 98.18530273 C28.28789793 99.07538439 26.6331859 99.96549779 24.97877502 100.85617065 C19.54199365 103.78237558 14.09837778 106.69545442 8.6496582 109.59936523 C7.52615967 110.21440918 6.40266113 110.82945312 5.24511719 111.46313477 C1.94262695 113.18530273 1.94262695 113.18530273 -1.32666016 114.52856445 C-4.34506157 115.84095533 -6.63565339 116.95196155 -9.05737305 119.18530273 C-10.51996591 123.52295897 -10.41883113 127.5221896 -10.24487305 132.06030273 C-10.18299805 136.06155273 -10.12112305 140.06280273 -10.05737305 144.18530273 C-1.47737305 144.51530273 7.10262695 144.84530273 15.94262695 145.18530273 C15.94262695 141.55530273 15.94262695 137.92530273 15.94262695 134.18530273 C17.94262695 132.18530273 17.94262695 132.18530273 20.64819336 131.95825195 C21.76887207 131.96872559 22.88955078 131.97919922 24.04418945 131.98999023 C25.2559082 131.99643555 26.46762695 132.00288086 27.71606445 132.00952148 C28.98708008 132.0262793 30.2580957 132.04303711 31.56762695 132.06030273 C32.84637695 132.06932617 34.12512695 132.07834961 35.44262695 132.08764648 C38.60947862 132.11127971 41.77596119 132.14422645 44.94262695 132.18530273 C47.41243965 135.96176163 47.23221034 139.7739402 47.20825195 144.12670898 C47.21016541 144.89079575 47.21207886 145.65488251 47.21405029 146.44212341 C47.21540836 148.05337861 47.21173835 149.66464488 47.20336914 151.27587891 C47.19264921 153.74268102 47.20328448 156.20875735 47.21606445 158.67553711 C47.21474308 160.24259601 47.21218114 161.80965445 47.20825195 163.37670898 C47.21230042 164.11425919 47.21634888 164.85180939 47.22052002 165.61170959 C47.18626117 169.34819551 47.06918081 170.99547195 44.94262695 174.18530273 C41.39698628 175.36718296 38.19405384 175.32518003 34.50537109 175.31469727 C33.75057968 175.31644958 32.99578827 175.3182019 32.21812439 175.32000732 C29.72132065 175.32441097 27.22458767 175.32149277 24.7277832 175.31811523 C22.99287401 175.31878877 21.2579649 175.31975921 19.52305603 175.3210144 C15.8856415 175.32248942 12.24825152 175.32034336 8.61083984 175.31567383 C3.94904911 175.30998091 -0.712684 175.31325402 -5.37447262 175.31924629 C-8.95781386 175.3228608 -12.54114145 175.32170914 -16.12448311 175.3191185 C-17.84327768 175.31845148 -19.5620735 175.31926982 -21.28086662 175.32159805 C-23.68418531 175.32413867 -26.0874109 175.32026386 -28.49072266 175.31469727 C-29.20098602 175.3167215 -29.91124939 175.31874573 -30.64303589 175.3208313 C-37.20399028 175.29269189 -37.20399028 175.29269189 -40.05737305 174.18530273 C-41.48966306 171.32072271 -41.23243941 168.8295479 -41.28198242 165.62768555 C-41.29906754 164.61757919 -41.29906754 164.61757919 -41.3164978 163.58706665 C-41.42711324 156.5442165 -41.47457245 149.5003228 -41.51733398 142.45678711 C-41.53960852 139.11576974 -41.58137295 135.77586962 -41.64038086 132.43530273 C-41.71152165 128.39985959 -41.7481727 124.36546763 -41.76045227 120.32942963 C-41.77084431 118.79357867 -41.79324913 117.25775897 -41.82804871 115.72226715 C-42.08463035 103.78290974 -42.08463035 103.78290974 -39.63929749 99.97988892 C-37.85572807 98.39035656 -36.1739888 97.2820099 -34.05737305 96.18530273 C-33.15301514 95.62955566 -32.24865723 95.07380859 -31.31689453 94.5012207 C-30.44621338 94.06438965 -29.57553223 93.62755859 -28.6784668 93.17749023 C-27.68468018 92.67121094 -26.69089355 92.16493164 -25.66699219 91.64331055 C-24.62019287 91.12091797 -23.57339355 90.59852539 -22.49487305 90.06030273 C-20.27252048 88.92945014 -18.05118737 87.79659219 -15.83081055 86.66186523 C-14.70900391 86.08984375 -13.58719727 85.51782227 -12.43139648 84.9284668 C-7.11470571 82.18163813 -1.86493557 79.3159925 3.38012695 76.43530273 C4.31477783 75.92209473 5.24942871 75.40888672 6.21240234 74.88012695 C7.83985345 73.98598348 9.46673767 73.09080654 11.09277344 72.1940918 C12.36356776 71.50108373 13.64796765 70.83263239 14.94262695 70.18530273 C15.01677016 65.25573015 15.07122512 60.32648192 15.10742188 55.39648438 C15.12251079 53.71934353 15.14298443 52.04224216 15.16894531 50.36523438 C15.20532506 47.9548977 15.22235181 45.54508255 15.2355957 43.13452148 C15.25107956 42.38442307 15.26656342 41.63432465 15.28251648 40.86149597 C15.2879032 36.83035164 15.2879032 36.83035164 13.69799805 33.21118164 C11.50578116 31.93000009 10.09844933 31.81217736 7.5637207 31.82202148 C6.30591797 31.82298828 6.30591797 31.82298828 5.02270508 31.82397461 C4.1506543 31.84008789 3.27860352 31.85620117 2.38012695 31.87280273 C1.50420898 31.86958008 0.62829102 31.86635742 -0.27416992 31.86303711 C-5.1828829 31.63051919 -5.1828829 31.63051919 -9.05737305 34.18530273 C-9.39545803 36.57600426 -9.39545803 36.57600426 -9.40112305 39.34155273 C-9.4455957 40.87489258 -9.4455957 40.87489258 -9.4909668 42.43920898 C-9.51288086 43.51041992 -9.53479492 44.58163086 -9.55737305 45.68530273 C-9.60063574 47.80008492 -9.65229932 49.9147172 -9.71362305 52.02905273 C-9.73231445 52.96942383 -9.75100586 53.90979492 -9.77026367 54.87866211 C-10.05737305 57.18530273 -10.05737305 57.18530273 -12.05737305 59.18530273 C-14.83886719 59.42822266 -14.83886719 59.42822266 -18.3425293 59.41577148 C-19.59485352 59.41383789 -20.84717773 59.4119043 -22.13745117 59.40991211 C-24.10875 59.39154297 -24.10875 59.39154297 -26.11987305 59.37280273 C-27.43793945 59.3721582 -28.75600586 59.37151367 -30.11401367 59.37084961 C-39.91728182 59.32539396 -39.91728182 59.32539396 -41.05737305 58.18530273 C-41.19575955 55.79283876 -41.2705303 53.43140313 -41.2956543 51.03686523 C-41.30372604 50.30970306 -41.31179779 49.58254089 -41.32011414 48.83334351 C-41.3339824 47.28483477 -41.34469222 45.7362951 -41.35253906 44.18774414 C-41.36955246 41.85427332 -41.41338297 39.52229527 -41.45776367 37.18920898 C-41.57028259 26.42044831 -40.76288655 15.94514654 -32.9597168 7.68530273 C-23.15450159 -0.04611953 -11.88280343 -0.00129569 0 0 Z " fill="#000000" transform="translate(349.057373046875,101.814697265625)"/>
<path d="M0 0 C4.51719599 -0.06937673 9.03249773 -0.12895087 13.54980469 -0.16479492 C15.08209543 -0.17975744 16.61434429 -0.20013497 18.14648438 -0.22631836 C29.57785373 -0.41659246 39.99491069 -0.29961852 49.24609375 7.26953125 C56.7675668 14.69049464 58.21275452 23.56540401 58.28216553 33.753479 C58.27968811 34.86849792 58.27721069 35.98351685 58.2746582 37.13232422 C58.27976913 38.32687225 58.28488007 39.52142029 58.29014587 40.75216675 C58.30161591 44.00850698 58.30412319 47.26468831 58.30158257 50.5210433 C58.30050751 53.2494019 58.3054099 55.97773743 58.310188 58.70609105 C58.32125669 65.14831679 58.32173562 71.59048421 58.31567383 78.03271484 C58.30963696 84.65607987 58.32194369 91.2792323 58.3432439 97.90256107 C58.36091637 103.60985148 58.36685236 109.31707456 58.36360615 115.02439129 C58.36180198 118.42396212 58.36434202 121.8233813 58.37832069 125.22292709 C58.39070641 129.01841185 58.3838799 132.81340931 58.37231445 136.60888672 C58.37995819 137.71985718 58.38760193 138.83082764 58.39547729 139.97546387 C58.322485 150.85555957 56.20823405 159.66473585 48.4375 167.625 C38.82576829 174.98573377 27.77068469 174.50438634 16.3125 174.25 C14.72463208 174.22989014 13.13673937 174.21164735 11.54882812 174.1953125 C7.69808923 174.15513786 3.85086883 174.07680403 0 174 C0 164.1 0 154.2 0 144 C11.8125 143.6875 11.8125 143.6875 15.52661133 143.61206055 C16.97716919 143.56239136 16.97716919 143.56239136 18.45703125 143.51171875 C19.44678955 143.48553467 20.43654785 143.45935059 21.45629883 143.43237305 C24.44510546 142.9243419 25.15969246 142.35020016 27 140 C27.44889103 137.96075137 27.44889103 137.96075137 27.38095093 135.6799469 C27.3894104 134.79811737 27.39786987 133.91628784 27.40658569 133.00773621 C27.400513 132.04297867 27.39444031 131.07822113 27.38818359 130.08422852 C27.39344055 129.0660907 27.39869751 128.04795288 27.40411377 126.9989624 C27.4173429 123.62545536 27.40856451 120.25241829 27.3984375 116.87890625 C27.40045755 114.53864959 27.40336841 112.19839354 27.40713501 109.85813904 C27.41156245 104.94955461 27.40511424 100.04113379 27.39111328 95.13256836 C27.37403078 88.83624257 27.38385428 82.54030065 27.40183067 76.24398899 C27.41266511 71.40989789 27.40922352 66.57589796 27.4014473 61.74180412 C27.39944387 59.4201344 27.40190954 57.09845644 27.40888596 54.77679634 C27.41649359 51.5326962 27.40490486 48.28921964 27.38818359 45.04516602 C27.39425629 44.08243271 27.40032898 43.1196994 27.40658569 42.12779236 C27.39812622 41.24314301 27.38966675 40.35849365 27.38095093 39.44703674 C27.37925431 38.29695302 27.37925431 38.29695302 27.37752342 37.12363529 C26.89345475 34.40066431 25.8715143 33.01001121 24 31 C21.40094589 30.35836328 21.40094589 30.35836328 18.45703125 30.390625 C17.48999268 30.36000977 16.5229541 30.32939453 15.52661133 30.29785156 C14.30095459 30.28206055 13.07529785 30.26626953 11.8125 30.25 C7.914375 30.1675 4.01625 30.085 0 30 C0 20.1 0 10.2 0 0 Z " fill="#000000" transform="translate(229,104)"/>
<path d="M0 0 C1.20317871 0.00249756 2.40635742 0.00499512 3.64599609 0.00756836 C5.91337646 0.02122437 5.91337646 0.02122437 8.2265625 0.03515625 C13.0528125 0.05578125 17.8790625 0.07640625 22.8515625 0.09765625 C22.8515625 9.99765625 22.8515625 19.89765625 22.8515625 30.09765625 C11.5390625 30.41015625 11.5390625 30.41015625 7.9831543 30.4855957 C7.05672119 30.5187085 6.13028809 30.55182129 5.17578125 30.5859375 C4.22791748 30.61212158 3.28005371 30.63830566 2.3034668 30.6652832 C-0.61682008 31.18025164 -1.34318807 31.79381303 -3.1484375 34.09765625 C-3.59493373 36.1767227 -3.59493373 36.1767227 -3.5226593 38.50709534 C-3.52967361 39.40864349 -3.53668793 40.31019165 -3.54391479 41.23905945 C-3.53244919 42.71896111 -3.53244919 42.71896111 -3.52075195 44.22875977 C-3.52440262 45.26961731 -3.52805328 46.31047485 -3.53181458 47.38287354 C-3.53993524 50.83093468 -3.52629795 54.27852816 -3.51171875 57.7265625 C-3.51120037 60.11644999 -3.51171722 62.50633791 -3.51322937 64.89622498 C-3.51313958 69.90736243 -3.5026956 74.91833922 -3.48461914 79.92944336 C-3.46191963 86.3649065 -3.46138941 92.80013501 -3.46813679 99.23562717 C-3.47147193 104.17085367 -3.46485546 109.1060263 -3.45500755 114.0412426 C-3.45114833 116.41480159 -3.45001031 118.78836657 -3.4515934 121.16192818 C-3.45196266 124.47338489 -3.43938317 127.78453625 -3.4230957 131.09594727 C-3.42557312 132.0845726 -3.42805054 133.07319794 -3.43060303 134.09178162 C-3.42351822 134.99050995 -3.41643341 135.88923828 -3.40913391 136.81520081 C-3.40708104 137.59851556 -3.40502817 138.38183031 -3.40291309 139.18888187 C-3.31308312 141.33798491 -3.31308312 141.33798491 -1.1484375 143.09765625 C1.37194214 143.4690154 1.37194214 143.4690154 4.296875 143.51171875 C5.26641113 143.5473291 6.23594727 143.58293945 7.23486328 143.61962891 C9.08700439 143.67062744 9.08700439 143.67062744 10.9765625 143.72265625 C14.8953125 143.84640625 18.8140625 143.97015625 22.8515625 144.09765625 C22.8515625 153.99765625 22.8515625 163.89765625 22.8515625 174.09765625 C18.20982408 174.19023386 13.57137466 174.26963123 8.92944336 174.31738281 C7.35543885 174.33731709 5.78150661 174.36447496 4.20776367 174.39941406 C-6.8718789 174.6389739 -15.86418348 174.05440878 -25.5234375 167.97265625 C-31.2640519 161.68531667 -34.26175664 154.28417983 -34.28887939 145.81782532 C-34.29458954 144.74832138 -34.30029968 143.67881744 -34.30618286 142.5769043 C-34.30730072 141.40853027 -34.30841858 140.24015625 -34.30957031 139.03637695 C-34.31453522 137.80179245 -34.31950012 136.56720795 -34.32461548 135.29521179 C-34.33671458 131.91063897 -34.3441801 128.52612786 -34.34862614 125.14154077 C-34.35156155 123.02412352 -34.3556673 120.90671164 -34.36013031 118.7892971 C-34.37380081 112.15620586 -34.38346887 105.52312693 -34.3873322 98.89002258 C-34.39180785 91.24869625 -34.40933458 83.60754925 -34.4383328 75.96627742 C-34.45999974 70.05017781 -34.4700392 64.13412846 -34.47137332 58.21798962 C-34.47241804 54.68927081 -34.4782541 51.16072066 -34.49619293 47.63204384 C-34.5158437 43.68994076 -34.5113647 39.74805894 -34.50488281 35.8059082 C-34.5140976 34.64765533 -34.52331238 33.48940247 -34.5328064 32.29605103 C-34.47994829 22.01132633 -32.63304852 14.61111318 -25.46484375 7.046875 C-18.24500507 0.97149641 -9.12857371 -0.039011 0 0 Z " fill="#000000" transform="translate(150.1484375,103.90234375)"/>
<path d="M0 0 C0 57.42 0 114.84 0 174 C-6.93 174 -13.86 174 -21 174 C-21 116.58 -21 59.16 -21 0 C-2 -1 -2 -1 0 0 Z " fill="#000000" transform="translate(212,104)"/>
<path d="M0 0 C2.31 0 4.62 0 7 0 C8.32 3.3 9.64 6.6 11 10 C11.33 6.7 11.66 3.4 12 0 C14.31 0 16.62 0 19 0 C19 11.22 19 22.44 19 34 C16.69 34 14.38 34 12 34 C10.68 30.37 9.36 26.74 8 23 C7.67 26.63 7.34 30.26 7 34 C4.69 34 2.38 34 0 34 C0 22.78 0 11.56 0 0 Z " fill="#000000" transform="translate(206,300)"/>
<path d="M0 0 C4.95 0 9.9 0 15 0 C18.59132819 3.59132819 18.38388807 4.41834985 18.3984375 9.3125 C18.40423828 11.17261719 18.40423828 11.17261719 18.41015625 13.0703125 C18.39855469 14.36710937 18.38695312 15.66390625 18.375 17 C18.38660156 18.29679687 18.39820313 19.59359375 18.41015625 20.9296875 C18.40628906 22.16976563 18.40242188 23.40984375 18.3984375 24.6875 C18.39505371 25.82574219 18.39166992 26.96398437 18.38818359 28.13671875 C18 31 18 31 15 34 C10.05 34 5.1 34 0 34 C0 22.78 0 11.56 0 0 Z M7 7 C7 13.6 7 20.2 7 27 C8.32 27 9.64 27 11 27 C11 20.4 11 13.8 11 7 C9.68 7 8.36 7 7 7 Z " fill="#000000" transform="translate(271,300)"/>
<path d="M0 0 C1.45212891 -0.03867187 1.45212891 -0.03867187 2.93359375 -0.078125 C5.5625 0.25 5.5625 0.25 7.20410156 1.36010742 C9.21375324 4.15606602 8.93435474 6.40392388 8.92578125 9.81640625 C8.92513672 11.10611328 8.92449219 12.39582031 8.92382812 13.72460938 C8.91552979 14.39516357 8.90723145 15.06571777 8.89868164 15.7565918 C8.87504229 17.80882888 8.87812852 19.85977033 8.88476562 21.91210938 C8.82934718 31.98315282 8.82934718 31.98315282 6.5625 34.25 C3.62890625 34.62109375 3.62890625 34.62109375 0.125 34.6875 C-1.60556641 34.74744141 -1.60556641 34.74744141 -3.37109375 34.80859375 C-6.4375 34.25 -6.4375 34.25 -8.10644531 32.06494141 C-9.56315668 28.98425871 -9.81136401 27.03854216 -9.80078125 23.65234375 C-9.80013672 22.60369141 -9.79949219 21.55503906 -9.79882812 20.47460938 C-9.78271484 19.38986328 -9.76660156 18.30511719 -9.75 17.1875 C-9.75322266 16.09888672 -9.75644531 15.01027344 -9.75976562 13.88867188 C-9.69801722 4.76674815 -9.69801722 4.76674815 -7.4375 1.25 C-4.85741408 -0.04004296 -2.88008426 0.04589776 0 0 Z M-2.4375 7.25 C-2.4375 13.85 -2.4375 20.45 -2.4375 27.25 C-1.1175 27.58 0.2025 27.91 1.5625 28.25 C2.77893292 27.25516798 2.77893292 27.25516798 2.67602539 25.30053711 C2.67078857 24.4678833 2.66555176 23.63522949 2.66015625 22.77734375 C2.65693359 21.87822266 2.65371094 20.97910156 2.65039062 20.05273438 C2.64201172 19.10720703 2.63363281 18.16167969 2.625 17.1875 C2.62048828 16.23810547 2.61597656 15.28871094 2.61132812 14.31054688 C2.5995011 11.95696935 2.58302025 9.60351523 2.5625 7.25 C0.9125 7.25 -0.7375 7.25 -2.4375 7.25 Z " fill="#000000" transform="translate(190.4375,299.75)"/>
<path d="M0 0 C2.05078125 0.03255208 4.1015625 0.06510417 6.15234375 0.09765625 C8.95088485 11.37337815 11.71729105 22.55297859 13.15234375 34.09765625 C10.819396 34.14007348 8.48531808 34.13858562 6.15234375 34.09765625 C5.15234375 33.09765625 5.15234375 33.09765625 5.08984375 30.53515625 C5.11046875 29.73078125 5.13109375 28.92640625 5.15234375 28.09765625 C3.17234375 28.42765625 1.19234375 28.75765625 -0.84765625 29.09765625 C-1.34265625 31.57265625 -1.34265625 31.57265625 -1.84765625 34.09765625 C-4.15765625 34.09765625 -6.46765625 34.09765625 -8.84765625 34.09765625 C-8.29015066 26.58485235 -6.99050484 19.38103636 -5.34765625 12.03515625 C-5.12207031 10.99166016 -4.89648438 9.94816406 -4.6640625 8.87304688 C-2.74217209 0.1449351 -2.74217209 0.1449351 0 0 Z M1.15234375 13.09765625 C0.82234375 16.06765625 0.49234375 19.03765625 0.15234375 22.09765625 C1.47234375 21.76765625 2.79234375 21.43765625 4.15234375 21.09765625 C3.49234375 18.45765625 2.83234375 15.81765625 2.15234375 13.09765625 C1.82234375 13.09765625 1.49234375 13.09765625 1.15234375 13.09765625 Z " fill="#000000" transform="translate(304.84765625,299.90234375)"/>
<path d="M0 0 C5.94 0 11.88 0 18 0 C18 2.31 18 4.62 18 7 C14.37 7 10.74 7 7 7 C7 9.31 7 11.62 7 14 C9.64 14 12.28 14 15 14 C16 17 16 17 16 20 C13.03 20 10.06 20 7 20 C7 22.64 7 25.28 7 28 C10.63 28 14.26 28 18 28 C18 29.98 18 31.96 18 34 C12.06 34 6.12 34 0 34 C0 22.78 0 11.56 0 0 Z " fill="#000000" transform="translate(232,300)"/>
<path d="M0 0 C2.31 0 4.62 0 7 0 C8.32 2.97 9.64 5.94 11 9 C12.32 6.03 13.64 3.06 15 0 C17.31 0 19.62 0 22 0 C21.42717395 4.38081744 20.28382247 7.90834284 18.5 11.9375 C15.53196774 19.34475055 15.12029948 26.09304352 15 34 C12.69 34 10.38 34 8 34 C6.96789101 30.90367303 7.0903701 29.54518816 7.375 26.375 C7.51199185 19.07529155 4.46869322 13.14184424 1.53125 6.625 C0 3 0 3 0 0 Z " fill="#000000" transform="translate(323,300)"/>
<path d="M0 0 C8.8590604 -0.29530201 8.8590604 -0.29530201 12 2 C14 5 14 5 13.875 8.5 C13 12 13 12 11.5 13.9375 C7.63316213 15.58090609 4.17911016 15.18437251 0 15 C0 10.05 0 5.1 0 0 Z M4 4 C4 6.64 4 9.28 4 12 C7.29075996 11.62095792 7.29075996 11.62095792 10 10 C10.16666667 7.5 10.16666667 7.5 10 5 C8.93354885 3.70366379 8.93354885 3.70366379 6.4375 3.9375 C5.633125 3.958125 4.82875 3.97875 4 4 Z " fill="#000000" transform="translate(125,348)"/>
<path d="M0 0 C1.37478516 0.01740234 1.37478516 0.01740234 2.77734375 0.03515625 C3.69644531 0.04417969 4.61554688 0.05320312 5.5625 0.0625 C6.27277344 0.07410156 6.98304688 0.08570313 7.71484375 0.09765625 C7.71484375 1.41765625 7.71484375 2.73765625 7.71484375 4.09765625 C5.40484375 4.09765625 3.09484375 4.09765625 0.71484375 4.09765625 C0.71484375 4.75765625 0.71484375 5.41765625 0.71484375 6.09765625 C3.02484375 6.09765625 5.33484375 6.09765625 7.71484375 6.09765625 C7.71484375 7.08765625 7.71484375 8.07765625 7.71484375 9.09765625 C6.74546875 9.22140625 5.77609375 9.34515625 4.77734375 9.47265625 C3.76671875 9.67890625 2.75609375 9.88515625 1.71484375 10.09765625 C1.38484375 10.75765625 1.05484375 11.41765625 0.71484375 12.09765625 C3.35484375 12.09765625 5.99484375 12.09765625 8.71484375 12.09765625 C8.38484375 13.08765625 8.05484375 14.07765625 7.71484375 15.09765625 C4.08484375 15.09765625 0.45484375 15.09765625 -3.28515625 15.09765625 C-3.31201037 12.78521833 -3.33148466 10.47269355 -3.34765625 8.16015625 C-3.35925781 6.87238281 -3.37085938 5.58460938 -3.3828125 4.2578125 C-3.2555354 0.13912544 -3.2555354 0.13912544 0 0 Z " fill="#000000" transform="translate(323.28515625,347.90234375)"/>
<path d="M0 0 C3.57659141 1.02188326 5.01390877 1.76114134 7.0625 4.875 C7.0625 8.66314147 6.8992392 10.91429943 4.375 13.8125 C1.3566394 15.19931433 -0.64720079 15.2862874 -3.9375 14.875 C-6.78188258 13.41437111 -7.70006764 12.47649532 -8.875 9.5 C-8.95644966 6.07911409 -7.98183188 4.57643855 -5.9375 1.875 C-2.9375 -0.125 -2.9375 -0.125 0 0 Z M-3.9375 3.875 C-4.2675 5.855 -4.5975 7.835 -4.9375 9.875 C-2.23417695 12.16100028 -2.23417695 12.16100028 0.1875 11.5625 C2.04843853 11.02921514 2.04843853 11.02921514 3.0625 9.875 C3.22916667 7.375 3.22916667 7.375 3.0625 4.875 C1.93715895 3.51881501 1.93715895 3.51881501 -1 3.8125 C-1.969375 3.833125 -2.93875 3.85375 -3.9375 3.875 Z " fill="#000000" transform="translate(269.9375,348.125)"/>
<path d="M0 0 C7.23809524 -0.36190476 7.23809524 -0.36190476 10.5 1.1875 C12 3 12 3 12.375 5.5 C12 8 12 8 10 11 C10.66 12.32 11.32 13.64 12 15 C9.5625 14.625 9.5625 14.625 7 14 C6.67 13.34 6.34 12.68 6 12 C5.01 11.67 4.02 11.34 3 11 C3 12.32 3 13.64 3 15 C2.01 15 1.02 15 0 15 C0 10.05 0 5.1 0 0 Z M3 4 C3 5.32 3 6.64 3 8 C4.65 7.67 6.3 7.34 8 7 C8 6.01 8 5.02 8 4 C6.35 4 4.7 4 3 4 Z " fill="#000000" transform="translate(348,348)"/>
<path d="M0 0 C3.63 0 7.26 0 11 0 C11 1.32 11 2.64 11 4 C8.69 4 6.38 4 4 4 C4 4.66 4 5.32 4 6 C5.98 6 7.96 6 10 6 C10 6.99 10 7.98 10 9 C8.02 9 6.04 9 4 9 C4 9.99 4 10.98 4 12 C6.31 12 8.62 12 11 12 C11 12.99 11 13.98 11 15 C7.37 15 3.74 15 0 15 C0 10.05 0 5.1 0 0 Z " fill="#000000" transform="translate(210,348)"/>
<path d="M0 0 C3.3 0 6.6 0 10 0 C10 1.32 10 2.64 10 4 C8.02 4.33 6.04 4.66 4 5 C6.97 5.495 6.97 5.495 10 6 C10 6.99 10 7.98 10 9 C8.02 9.33 6.04 9.66 4 10 C4 10.33 4 10.66 4 11 C6.31 11.33 8.62 11.66 11 12 C11 12.99 11 13.98 11 15 C7.04 15 3.08 15 -1 15 C-0.67 10.05 -0.34 5.1 0 0 Z " fill="#000000" transform="translate(155,348)"/>
<path d="M0 0 C7.26457399 -0.48430493 7.26457399 -0.48430493 10.5625 1.6875 C12 4 12 4 11.9375 6.625 C11 9 11 9 8 11 C6.68 11 5.36 11 4 11 C4 12.32 4 13.64 4 15 C2.35 14.67 0.7 14.34 -1 14 C-0.67 9.38 -0.34 4.76 0 0 Z M4 4 C4 5.32 4 6.64 4 8 C5.32 7.67 6.64 7.34 8 7 C8 6.01 8 5.02 8 4 C6.68 4 5.36 4 4 4 Z " fill="#000000" transform="translate(293,348)"/>
<path d="M0 0 C-0.33 1.32 -0.66 2.64 -1 4 C-2.65 4 -4.3 4 -6 4 C-4.02 4.99 -2.04 5.98 0 7 C0.1875 9.375 0.1875 9.375 0 12 C-3.46998729 14.31332486 -4.92509248 14.33957563 -9 14 C-9.99 13.34 -10.98 12.68 -12 12 C-11.67 11.01 -11.34 10.02 -11 9 C-8.69 9.66 -6.38 10.32 -4 11 C-5.50663783 7.98672434 -8.03166411 7.38943382 -11 6 C-10.6875 3.625 -10.6875 3.625 -10 1 C-6.1496895 -1.56687367 -4.41430237 -0.83288724 0 0 Z " fill="#000000" transform="translate(387,349)"/>
<path d="M0 0 C1.32 0 2.64 0 4 0 C5.32 2.64 6.64 5.28 8 8 C8.99 5.36 9.98 2.72 11 0 C12.32 0.33 13.64 0.66 15 1 C14.26950918 3.15255287 13.5149728 5.29695864 12.75 7.4375 C12.33234375 8.63246094 11.9146875 9.82742188 11.484375 11.05859375 C10 14 10 14 7.828125 14.91015625 C7.22484375 14.93980469 6.6215625 14.96945312 6 15 C3.74138003 10.06612142 1.59890486 5.19644079 0 0 Z " fill="#000000" transform="translate(180,348)"/>
<path d="M0 0 C0.99 0 1.98 0 3 0 C3 3.96 3 7.92 3 12 C4.98 12 6.96 12 9 12 C9 12.99 9 13.98 9 15 C5.7 15 2.4 15 -1 15 C-1.02685412 12.68756208 -1.04632841 10.3750373 -1.0625 8.0625 C-1.07410156 6.77472656 -1.08570313 5.48695313 -1.09765625 4.16015625 C-1 1 -1 1 0 0 Z " fill="#000000" transform="translate(238,348)"/>
</svg>
